<svg
xmlns="http://www.w3.org/2000/svg" 
  fill="currentColor"
  viewBox="0 0 66 24">
  <path
    d="M 0,12.021468 Q 0,10.991056 1.0312498,10.991056 H 9.5390612 L 0.68749985,1.0304117 Q 0.55859379,0.85867633 0.55859379,0.64400732 0.55859379,0 1.1601561,0 1.4609372,0 1.6757811,0.21466903 L 11.214842,10.991056 h 2.878905 L 5.2421868,1.0304117 Q 5.1132804,0.85867633 5.1132804,0.64400732 5.1132804,0 5.7578115,0 6.0585928,0 6.2304677,0.21466903 L 15.812497,10.991056 h 2.835938 L 9.8398419,1.0304117 Q 9.6679675,0.85867633 9.6679675,0.64400732 9.6679675,0 10.312499,0 10.61328,0 10.785155,0.21466903 L 20.367186,10.991056 H 23.24609 L 14.394529,1.0304117 Q 14.265622,0.85867633 14.265622,0.64400732 14.265622,0 14.867185,0 15.167967,0 15.382811,0.21466903 L 24.921872,10.991056 H 46.019525 Q 45.632806,8.2003577 41.894525,3.5205721 41.76563,3.3488384 41.76563,3.1341685 q 0,-0.6440072 0.601558,-0.6440072 0.257831,0 0.429689,0.1288001 11.429685,8.7584956 22.64453,8.7584956 0.558593,0 0.558593,0.64401 0,0.601073 -0.515626,0.601073 -11.300779,0.04294 -22.687497,8.758497 -0.171863,0.1288 -0.429689,0.1288 -0.601558,0 -0.601558,-0.644007 0,-0.214668 0.128895,-0.386406 3.738281,-4.679784 4.125,-7.470481 H 24.921872 L 15.382811,23.785332 Q 15.167967,24 14.867185,24 q -0.601563,0 -0.601563,-0.644008 0,-0.214668 0.128908,-0.386404 l 8.85156,-9.960644 H 20.367186 L 10.785155,23.785332 Q 10.613281,24 10.312499,24 9.6679675,24 9.6679675,23.355992 q 0,-0.214668 0.1718742,-0.386404 L 18.648435,13.008944 H 15.812497 L 6.2304677,23.785332 Q 6.0585941,24 5.7578115,24 5.1132804,24 5.1132804,23.355992 q 0,-0.214668 0.1289079,-0.386404 L 14.093747,13.008944 H 11.214842 L 1.6757811,23.785332 Q 1.4609372,24 1.1601561,24 0.55859379,24 0.55859379,23.355992 q 0,-0.214668 0.12890625,-0.386404 L 9.5390612,13.008944 H 1.0312498 Q 0,13.008944 0,12.021468 Z m 65.484362,-0.644009 z"
    aria-label="Flèche"
  />
</svg>
