<svg xmlns="http://www.w3.org/2000/svg" fill="none" viewBox="0 0 128 128">
  <rect id="_Square" x="0" y="0" width="128" height="128" rx="45" />
  <g transform="matrix(0.118519,2.90287e-17,-2.90287e-17,0.118519,-19.123,56.4119)">
    <path id="_Bailly"
      d="M507.768,278.225L507.768,-148.975C507.768,-187.375 506.368,-214.575 503.568,-230.575C500.768,-246.575 493.368,-256.775 481.368,-261.175C469.368,-265.575 449.368,-268.575 421.368,-270.175C418.168,-270.175 416.568,-274.975 416.568,-284.575C416.568,-287.775 416.968,-291.575 417.768,-295.975C418.568,-300.375 420.168,-302.575 422.568,-302.575C435.368,-302.575 450.768,-302.375 468.768,-301.975C486.768,-301.575 505.168,-301.175 523.968,-300.775C542.768,-300.375 558.968,-300.175 572.568,-300.175C584.568,-300.175 599.768,-300.375 618.168,-300.775C636.568,-301.175 654.968,-301.775 673.368,-302.575C691.768,-303.375 706.568,-303.775 717.768,-303.775C746.568,-303.775 776.368,-302.375 807.168,-299.575C837.968,-296.775 866.368,-290.375 892.368,-280.375C918.368,-270.375 939.368,-254.975 955.368,-234.175C971.368,-213.375 979.368,-184.975 979.368,-148.975C979.368,-103.375 964.368,-64.575 934.368,-32.575C904.368,-0.575 864.568,23.825 814.968,40.625L814.968,46.625C861.368,51.425 898.968,62.625 927.768,80.225C956.568,97.825 977.568,119.225 990.768,144.425C1003.97,169.625 1010.57,196.225 1010.57,224.225C1010.57,248.225 1005.97,272.425 996.768,296.825C987.568,321.225 971.968,343.625 949.968,364.025C927.968,384.425 897.568,400.825 858.768,413.225C819.968,425.625 770.968,431.825 711.768,431.825C698.168,431.825 681.968,431.425 663.168,430.625C644.368,429.825 626.168,429.225 608.568,428.825C590.968,428.425 576.968,428.225 566.568,428.225C554.568,428.225 539.568,428.425 521.568,428.825C503.568,429.225 485.768,429.825 468.168,430.625C450.568,431.425 435.768,431.825 423.768,431.825C421.368,431.825 419.768,429.825 418.968,425.825C418.168,421.825 417.768,418.225 417.768,415.025C417.768,411.825 418.168,408.425 418.968,404.825C419.768,401.225 421.368,399.425 423.768,399.425C450.168,397.825 469.368,395.025 481.368,391.025C493.368,387.025 500.768,376.625 503.568,359.825C506.368,343.025 507.768,315.825 507.768,278.225ZM648.168,74.225L648.168,326.225C648.168,347.025 649.968,362.025 653.568,371.225C657.168,380.425 663.768,386.025 673.368,388.025C682.968,390.025 696.568,391.025 714.168,391.025C809.368,391.025 856.968,339.825 856.968,237.425C856.968,193.425 848.968,159.625 832.968,136.025C816.968,112.425 795.568,96.225 768.768,87.425C741.968,78.625 712.168,74.225 679.368,74.225L648.168,74.225ZM648.168,34.625L682.968,34.625C710.968,34.625 736.168,30.225 758.568,21.425C780.968,12.625 798.968,-3.575 812.568,-27.175C826.168,-50.775 832.968,-84.575 832.968,-128.575C832.968,-171.775 822.568,-205.375 801.768,-229.375C780.968,-253.375 748.168,-265.375 703.368,-265.375C678.568,-265.375 663.168,-262.575 657.168,-256.975C651.168,-251.375 648.168,-240.175 648.168,-223.375L648.168,34.625Z" />
  </g>
  <defs>
    <linearGradient id="_BaillyLinearLight" x1="0" y1="0" x2="0" y2="1">
      <stop offset="0.15" style="stop-color:rgb(207,103,16);stop-opacity:1" />
      <stop offset="1" style="stop-color:rgb(172,72,17);stop-opacity:1" />
    </linearGradient>
    <linearGradient id="_BaillyLinearDark" x1="0" y1="0" x2="0" y2="1">
      <stop offset="0" style="stop-color:rgb(221,217,203);stop-opacity:1" />
      <stop offset="1" style="stop-color:rgb(200,191,169);stop-opacity:1" />
    </linearGradient>
    <linearGradient id="_SquareLinearLight" x1="0" y1="0" x2="0" y2="1">
      <stop offset="0" style="stop-color:rgb(221,217,203);stop-opacity:1" />
      <stop offset="1" style="stop-color:rgb(200,191,169);stop-opacity:1" />
    </linearGradient>
    <linearGradient id="_SquareLinearDark" x1="0" y1="0" x2="0" y2="1">
      <stop offset="0.15" style="stop-color:rgb(207,103,16);stop-opacity:1" />
      <stop offset="1" style="stop-color:rgb(172,72,17);stop-opacity:1" />
    </linearGradient>
  </defs>
  
  <style>
    #_Bailly {
      fill: url(#_BaillyLinearDark);
    }

    #_Square {
      fill: url(#_SquareLinearDark);
    }

    @media (prefers-color-scheme: dark) {
      #_Bailly {
        fill: url(#_BaillyLinearDark);
      }

      #_Square {
        fill: url(#_SquareLinearDark);
      }
    }
  </style>
</svg>